<?xml version="1.0" encoding="iso-8859-1"?>
<!-- Generator: Adobe Illustrator 18.0.0, SVG Export Plug-In . SVG Version: 6.00 Build 0)  -->
<!DOCTYPE svg PUBLIC "-//W3C//DTD SVG 1.1//EN" "http://www.w3.org/Graphics/SVG/1.1/DTD/svg11.dtd">
<svg xmlns="http://www.w3.org/2000/svg" xmlns:xlink="http://www.w3.org/1999/xlink" version="1.1" x="0px" y="0px" viewBox="0 0 89.4 40" style="enable-background:new 0 0 89.4 32;" xml:space="preserve"><title>Glasses</title><path d="M87.9,10.4c-2.7-2.5-5.6-4.8-8.5-7.1c-4-3.1-8.8-5.3-12.7-0.6c-1.5,1.8,2,2.6,3.2,1.2c2.6-3.2,9.1,3.6,11,5.2  c0.6,0.5,1.4,1,2.2,1.7c-3.4,0-6.8-0.1-10.2,0c-3.6,0.1-7.9-0.1-11.3,1.3c-1.1,0.4-1.8,1.1-2.3,2c-1.5-0.5-3.1-0.8-4.8-0.9  c-1.7,0-3.4,0.3-5,0.9c-0.1-0.2-0.2-0.4-0.3-0.6c-0.2-0.2-0.4-0.4-0.6-0.5c-2.5-1.7-6.9-1.6-9.7-1.8c-5.6-0.3-11.2-0.2-16.8,0.2  c-0.1,0-0.3,0-0.5,0.1c-0.4-0.4-0.8-0.8-1.4-1.3c-2.6-2.2-5.3-4.3-8-6.3C8.4,1,3.8-0.3,0.4,3.9c-1.5,1.8,2,2.6,3.2,1.2  C6.1,2,12.1,8.1,14.1,9.7c1.5,1.1,2.9,2.3,4.3,3.5c0.8,0.8,1.3,1.9,1.3,3.1c0.1,0.4,0.3,0.7,0.7,0.9c0,3.5,0.1,7.5,1.7,10.1  c2.2,3.7,8.8,4.7,12.6,4.8c4.4,0.1,10.5-0.5,13.3-4.3c2.2-2.9,3.2-7.2,2.5-10.9c2.8-1,5.2-0.5,7.9,0.3c-0.2,3.1,0.9,6.7,1.8,8.9  c2.7,6.3,14.2,6.3,19.8,4.9c6.7-1.8,8.7-8.3,8.7-14.6c0.4-0.3,0.7-0.7,0.7-1.2C89.4,12.8,89.6,12,87.9,10.4z M41.4,28.4  c-3.9,1-8.1,0.8-12-0.5c-4.1-1.5-4.5-3-4.9-7.1c-0.2-2.2-0.3-4.4-0.5-6.5c4.1-0.2,8.3-0.3,12.4-0.1c2.6,0.1,7.4-0.3,9.6,1.4  C48.6,19.6,46.1,27.1,41.4,28.4z M84.7,20.5c-0.9,4.8-3,7.4-8.1,8c-3.3,0.4-6.6,0-9.7-1.2c-3-1.2-3.4-2.6-4-5.6  c-0.2-1-1.3-5.7-0.6-6.7c0.8-1,4.1-1,5.3-1.1c5.7-0.5,11.5-0.3,17.3-0.2C85.1,15.9,85.1,18.2,84.7,20.5z"/></svg>
